<svg width="78" height="79" viewBox="0 0 78 79" fill="none">
<path d="M66.5488 20.2466C58.1036 22.5116 48.2023 23.4823 39.0452 23.4823C29.8882 23.4823 19.9869 22.5116 11.5417 20.2466L9.92383 26.718C15.9423 28.3358 22.8667 29.4036 29.3381 29.9537V72.0179H35.8095V52.6037H42.2809V72.0179H48.7524V29.9537C55.2238 29.4036 62.1482 28.3358 68.1666 26.718L66.5488 20.2466ZM39.0452 20.2466C42.6045 20.2466 45.5167 17.3344 45.5167 13.7751C45.5167 10.2159 42.6045 7.30371 39.0452 7.30371C35.4859 7.30371 32.5738 10.2159 32.5738 13.7751C32.5738 17.3344 35.4859 20.2466 39.0452 20.2466Z" fill="#0442FF"/>
</svg>
