<svg width="82" height="76" viewBox="0 0 82 76" fill="none">
<path d="M0 11.3433C0 5.07856 5.08941 0 11.3675 0H70.4786C76.7567 0 81.8462 5.07856 81.8462 11.3433V64.6567C81.8462 70.9214 76.7567 76 70.4786 76H11.3675C5.08941 76 0 70.9214 0 64.6567V11.3433Z" fill="#323232"/>
<path fill-rule="evenodd" clip-rule="evenodd" d="M70.4786 4.53731H11.3675C7.60066 4.53731 4.54701 7.58445 4.54701 11.3433V64.6567C4.54701 68.4156 7.60066 71.4627 11.3675 71.4627H70.4786C74.2455 71.4627 77.2991 68.4156 77.2991 64.6567V11.3433C77.2991 7.58445 74.2455 4.53731 70.4786 4.53731ZM11.3675 0C5.08941 0 0 5.07856 0 11.3433V64.6567C0 70.9214 5.08941 76 11.3675 76H70.4786C76.7567 76 81.8462 70.9214 81.8462 64.6567V11.3433C81.8462 5.07856 76.7567 0 70.4786 0H11.3675Z" fill="white"/>
<path d="M39.7561 57.8862C36.6985 57.8862 33.9313 57.2222 31.4543 55.8942C28.9773 54.5248 27.0035 52.512 25.5328 49.856C24.1008 47.2001 23.3848 43.8801 23.3848 39.8961C23.4235 35.9951 24.1588 32.6752 25.5908 29.9362C27.0228 27.1972 28.9773 25.1222 31.4543 23.7112C33.9313 22.3002 36.7566 21.5947 39.9302 21.5947C42.9491 21.5947 45.5228 22.1757 47.6515 23.3377C49.7801 24.4997 51.483 26.0767 52.7602 28.0687C54.0761 30.0607 54.9276 32.3017 55.3146 34.7916H49.2189C48.948 32.9657 48.3094 31.5339 47.3031 30.4964C46.3356 29.4174 45.1938 28.6704 43.8779 28.2554C42.562 27.7989 41.2461 27.5707 39.9302 27.5707C36.4857 27.5707 33.8345 28.6082 31.9768 30.6832C30.1578 32.7582 29.2482 35.6839 29.2482 39.4604C29.2482 43.4858 30.1384 46.5776 31.9187 48.7355C33.7378 50.8935 36.3696 51.9725 39.8141 51.9725C41.2461 51.9725 42.6394 51.7443 43.994 51.2878C45.3486 50.7898 46.5097 50.0013 47.4773 48.9223C48.4449 47.8018 49.0641 46.3078 49.335 44.4403H55.4888C55.0631 47.0133 54.1922 49.3165 52.8763 51.35C51.5991 53.342 49.8575 54.9398 47.6515 56.1432C45.4841 57.3052 42.8523 57.8862 39.7561 57.8862Z" fill="white"/>
<path d="M64.8389 19.241C64.8389 21.7958 62.8769 23.8669 60.4566 23.8669C58.0363 23.8669 56.0742 21.7958 56.0742 19.241C56.0742 16.6863 58.0363 14.6152 60.4566 14.6152C62.8769 14.6152 64.8389 16.6863 64.8389 19.241Z" fill="white"/>
</svg>
