<svg width="75" height="75" viewBox="0 0 75 75" fill="none">
<path d="M34.5812 43.8007H28.4434C28.4434 28.5482 40.8112 16.1804 56.0637 16.1804V22.3182C44.187 22.3182 34.5812 31.924 34.5812 43.8007ZM56.0637 34.5939V28.4561C47.5935 28.4561 40.7191 35.3305 40.7191 43.8007H46.8569C46.8569 38.7063 50.9693 34.5939 56.0637 34.5939ZM22.3055 13.1115C22.3055 9.70497 19.5742 6.97363 16.1677 6.97363C12.7612 6.97363 10.0299 9.70497 10.0299 13.1115C10.0299 16.518 12.7612 19.2493 16.1677 19.2493C19.5742 19.2493 22.3055 16.518 22.3055 13.1115ZM35.9623 14.6459H29.8244C29.0879 19.0038 25.3438 22.3182 20.7711 22.3182H11.5643C9.01712 22.3182 6.96094 24.3744 6.96094 26.9216V34.5939H25.3745V27.6582C31.0827 25.8475 35.3485 20.8145 35.9623 14.6459ZM59.1326 53.0075C62.5391 53.0075 65.2705 50.2761 65.2705 46.8696C65.2705 43.4631 62.5391 40.7318 59.1326 40.7318C55.7261 40.7318 52.9948 43.4631 52.9948 46.8696C52.9948 50.2761 55.7261 53.0075 59.1326 53.0075ZM63.736 56.0764H54.5292C49.9565 56.0764 46.2125 52.762 45.4759 48.4041H39.3381C39.9519 54.5726 44.2177 59.6057 49.9259 61.4163V68.3521H68.3394V60.6798C68.3394 58.1326 66.2832 56.0764 63.736 56.0764Z" fill="#0442FF"/>
</svg>
