<svg width="114" height="38" viewBox="0 0 114 38" fill="none" xmlns="http://www.w3.org/2000/svg">
<path d="M107.568 9.49123C107.568 10.8502 106.466 11.9519 105.107 11.9519C103.748 11.9519 102.646 10.8502 102.646 9.49123C102.646 8.13222 103.748 7.03052 105.107 7.03052C106.466 7.03052 107.568 8.13222 107.568 9.49123Z" fill="#0442FF"/>
<path d="M14.7034 26.3034C13.3854 26.3034 12.1926 26.0151 11.1249 25.4386C10.0572 24.844 9.20634 23.9701 8.57239 22.817C7.95512 21.6639 7.64648 20.2225 7.64648 18.4928C7.66317 16.7991 7.98014 15.3577 8.59741 14.1686C9.21468 12.9794 10.0572 12.0785 11.1249 11.4659C12.1926 10.8533 13.4104 10.547 14.7784 10.547C16.0797 10.547 17.1891 10.7993 18.1067 11.3038C19.0242 11.8083 19.7583 12.4929 20.3088 13.3578C20.876 14.2226 21.2431 15.1956 21.4099 16.2766H18.7823C18.6656 15.4839 18.3903 14.8622 17.9565 14.4118C17.5395 13.9434 17.0473 13.619 16.4801 13.4389C15.9129 13.2407 15.3457 13.1416 14.7784 13.1416C13.2937 13.1416 12.1509 13.592 11.3501 14.4929C10.566 15.3938 10.1739 16.664 10.1739 18.3036C10.1739 20.0513 10.5577 21.3936 11.3251 22.3305C12.1092 23.2674 13.2436 23.7359 14.7284 23.7359C15.3457 23.7359 15.9462 23.6368 16.5301 23.4386C17.114 23.2224 17.6145 22.8801 18.0316 22.4116C18.4487 21.9251 18.7156 21.2765 18.8324 20.4657H21.485C21.3015 21.5828 20.9261 22.5828 20.3589 23.4656C19.8083 24.3305 19.0576 25.0242 18.1067 25.5467C17.1724 26.0512 16.038 26.3034 14.7034 26.3034Z" fill="#0442FF"/>
<path d="M22.7002 26.0331L27.2046 10.8173H31.3837L36.0132 26.0331H33.2855L32.0844 21.7359H26.604L25.4029 26.0331H22.7002ZM29.3317 11.9794L27.2046 19.6009H31.4838L29.3317 11.9794Z" fill="#0442FF"/>
<path d="M40.3776 26.0331H37.8251V10.8173H43.4806C45.0488 10.8173 46.2667 11.2407 47.1342 12.0875C48.0017 12.9344 48.4355 14.2136 48.4355 15.9253C48.4355 17.4207 47.985 18.5919 47.0842 19.4387C46.2 20.2855 44.9988 20.7089 43.4806 20.7089H40.3776V26.0331ZM43.1303 13.0605H40.3776V18.682H43.1303C44.0312 18.682 44.7569 18.4477 45.3074 17.9793C45.858 17.5108 46.1332 16.8081 46.1332 15.8712C46.1332 14.9163 45.858 14.2136 45.3074 13.7632C44.7736 13.2947 44.0479 13.0605 43.1303 13.0605Z" fill="#0442FF"/>
<path d="M49.1123 13.1956V10.8173H59.9979V13.1956H55.8188V26.0331H53.2663V13.1956H49.1123Z" fill="#0442FF"/>
<path d="M67.9518 26.4115C65.9498 26.4115 64.4233 25.8169 63.3723 24.6278C62.338 23.4206 61.8208 21.7269 61.8208 19.5468V10.8173H64.5484V19.5198C64.5484 20.6369 64.7153 21.5017 65.0489 22.1143C65.3826 22.7269 65.808 23.1593 66.3252 23.4116C66.8423 23.6638 67.3845 23.79 67.9518 23.79C68.5857 23.79 69.1613 23.6728 69.6784 23.4386C70.1956 23.1864 70.6043 22.7539 70.9046 22.1413C71.2216 21.5287 71.3801 20.6549 71.3801 19.5198V10.8173H74.0827V19.5468C74.0827 21.763 73.5656 23.4656 72.5312 24.6548C71.5136 25.8259 69.9871 26.4115 67.9518 26.4115Z" fill="#0442FF"/>
<path d="M85.1172 26.0331H88.0263L84.5138 19.9357C86.2377 19.6331 87.9186 18.1437 87.9186 15.3742C87.9186 12.5117 86.0654 10.5103 83.2209 10.5103H76.9071V26.0331H79.4283V20.2382H81.928L85.1172 26.0331ZM85.3327 15.3742C85.3327 16.8637 84.2984 17.8412 82.8761 17.8412H79.4283V12.9073H82.8761C84.2984 12.9073 85.3327 13.8848 85.3327 15.3742Z" fill="#0442FF"/>
<path d="M96.3655 26.4115C94.0967 26.4115 92.3616 25.6998 91.1605 24.2764C89.9593 22.835 89.3587 20.8981 89.3587 18.4658C89.3587 16.8622 89.6173 15.4748 90.1345 14.3037C90.6516 13.1145 91.4274 12.1956 92.4617 11.547C93.5128 10.8804 94.814 10.547 96.3655 10.547C98.6678 10.547 100.411 11.2677 101.596 12.7091C102.78 14.1325 103.372 16.0514 103.372 18.4658C103.372 20.0333 103.105 21.4206 102.572 22.6278C102.038 23.817 101.254 24.7449 100.219 25.4115C99.185 26.0782 97.9004 26.4115 96.3655 26.4115ZM96.3405 23.7629C97.842 23.7629 98.9681 23.2584 99.7188 22.2494C100.486 21.2405 100.87 19.9792 100.87 18.4658C100.87 17.4388 100.703 16.5289 100.369 15.7361C100.036 14.9253 99.5353 14.2947 98.868 13.8443C98.2007 13.3758 97.3582 13.1416 96.3405 13.1416C94.8724 13.1416 93.7547 13.628 92.9873 14.601C92.2198 15.5739 91.8361 16.8622 91.8361 18.4658C91.8361 19.4567 91.9946 20.3576 92.3116 21.1684C92.6453 21.9612 93.1457 22.5918 93.8131 23.0602C94.4804 23.5287 95.3229 23.7629 96.3405 23.7629Z" fill="#0442FF"/>
<path fill-rule="evenodd" clip-rule="evenodd" d="M110.96 3.04H3.04V34.4966H110.96V3.04ZM0 0V37.5366H114V0H0Z" fill="#0442FF"/>
</svg>
