<svg width="408" height="160" viewBox="0 0 408 160" fill="none" xmlns="http://www.w3.org/2000/svg">
<path fill-rule="evenodd" clip-rule="evenodd" d="M183.435 1.53269H16.3633C13.1952 1.53269 10.627 4.27753 10.627 7.66345V62.8403C10.627 66.2263 13.1952 68.9711 16.3633 68.9711H183.435C186.603 68.9711 189.171 66.2263 189.171 62.8403V7.66346C189.171 4.27753 186.603 1.53269 183.435 1.53269ZM16.3633 0C12.4032 0 9.19287 3.43104 9.19287 7.66345V62.8403C9.19287 67.0727 12.4032 70.5038 16.3633 70.5038H183.435C187.395 70.5038 190.605 67.0727 190.605 62.8403V7.66346C190.605 3.43105 187.395 0 183.435 0H16.3633Z" fill="#0442FF"/>
<path d="M19.4855 35.253C19.4855 40.9792 15.1235 45.6212 9.74277 45.6212C4.36199 45.6212 0 40.9792 0 35.253C0 29.5268 4.36199 24.8848 9.74277 24.8848C15.1235 24.8848 19.4855 29.5268 19.4855 35.253Z" fill="#0442FF"/>
<path fill-rule="evenodd" clip-rule="evenodd" d="M9.74277 44.8806C14.7392 44.8806 18.7896 40.5702 18.7896 35.253C18.7896 29.9358 14.7392 25.6254 9.74277 25.6254C4.74633 25.6254 0.695912 29.9358 0.695912 35.253C0.695912 40.5702 4.74633 44.8806 9.74277 44.8806ZM9.74277 45.6212C15.1235 45.6212 19.4855 40.9792 19.4855 35.253C19.4855 29.5268 15.1235 24.8848 9.74277 24.8848C4.36199 24.8848 0 29.5268 0 35.253C0 40.9792 4.36199 45.6212 9.74277 45.6212Z" fill="#0442FF"/>
<path d="M9.40688 38.7075H10.9602V31.7954H9.60377L7.30664 33.982L8.19268 34.8629L9.40688 33.6918V38.7075Z" fill="white"/>
<path d="M24.6313 10.3691C24.6313 9.22381 25.5888 8.29541 26.7699 8.29541H75.2439C76.425 8.29541 77.3825 9.22381 77.3825 10.3691V13.1339C77.3825 14.2791 76.425 15.2075 75.2439 15.2075H26.7699C25.5888 15.2075 24.6313 14.2791 24.6313 13.1339V10.3691Z" fill="#0442FF"/>
<path d="M24.6313 24.1928C24.6313 23.0475 25.5896 22.1191 26.7716 22.1191H173.025C174.207 22.1191 175.165 23.0475 175.165 24.1928V26.9576C175.165 28.1029 174.207 29.0313 173.025 29.0313H26.7716C25.5896 29.0313 24.6313 28.1029 24.6313 26.9576V24.1928Z" fill="#0442FF"/>
<path d="M24.6313 36.6342C24.6313 35.4889 25.5896 34.5605 26.7716 34.5605H173.025C174.207 34.5605 175.165 35.4889 175.165 36.6342V39.399C175.165 40.5443 174.207 41.4727 173.025 41.4727H26.7716C25.5896 41.4727 24.6313 40.5443 24.6313 39.399V36.6342Z" fill="#0442FF"/>
<path d="M24.6313 50.4589C24.6313 49.3137 25.5896 48.3853 26.7716 48.3853H173.025C174.207 48.3853 175.165 49.3137 175.165 50.4589V53.2238C175.165 54.369 174.207 55.2974 173.025 55.2974H26.7716C25.5896 55.2974 24.6313 54.369 24.6313 53.2238V50.4589Z" fill="#0442FF"/>
<path fill-rule="evenodd" clip-rule="evenodd" d="M400.829 1.53269H233.757C230.589 1.53269 228.021 4.27753 228.021 7.66345V62.8403C228.021 66.2263 230.589 68.9711 233.757 68.9711H400.829C403.997 68.9711 406.565 66.2263 406.565 62.8403V7.66346C406.565 4.27753 403.997 1.53269 400.829 1.53269ZM233.757 0C229.797 0 226.587 3.43104 226.587 7.66345V62.8403C226.587 67.0727 229.797 70.5038 233.757 70.5038H400.829C404.789 70.5038 407.999 67.0727 407.999 62.8403V7.66346C407.999 3.43105 404.789 0 400.829 0H233.757Z" fill="#0442FF"/>
<path d="M237.94 36.0103C237.94 41.7365 233.298 46.3785 227.571 46.3785C221.845 46.3785 217.202 41.7365 217.202 36.0103C217.202 30.2841 221.845 25.6421 227.571 25.6421C233.298 25.6421 237.94 30.2841 237.94 36.0103Z" fill="#0442FF"/>
<path fill-rule="evenodd" clip-rule="evenodd" d="M227.571 45.6379C232.889 45.6379 237.2 41.3275 237.2 36.0103C237.2 30.6931 232.889 26.3827 227.571 26.3827C222.254 26.3827 217.943 30.6931 217.943 36.0103C217.943 41.3275 222.254 45.6379 227.571 45.6379ZM227.571 46.3785C233.298 46.3785 237.94 41.7365 237.94 36.0103C237.94 30.2841 233.298 25.6421 227.571 25.6421C221.845 25.6421 217.202 30.2841 217.202 36.0103C217.202 41.7365 221.845 46.3785 227.571 46.3785Z" fill="#0442FF"/>
<path d="M242.026 10.3691C242.026 9.22381 242.983 8.29541 244.164 8.29541H292.638C293.82 8.29541 294.777 9.22381 294.777 10.3691V13.1339C294.777 14.2791 293.82 15.2075 292.638 15.2075H244.164C242.983 15.2075 242.026 14.2791 242.026 13.1339V10.3691Z" fill="#0442FF"/>
<path d="M242.026 24.1928C242.026 23.0475 242.984 22.1191 244.166 22.1191H390.419C391.601 22.1191 392.56 23.0475 392.56 24.1928V26.9576C392.56 28.1029 391.601 29.0313 390.419 29.0313H244.166C242.984 29.0313 242.026 28.1029 242.026 26.9576V24.1928Z" fill="#0442FF"/>
<path d="M242.026 36.6342C242.026 35.4889 242.984 34.5605 244.166 34.5605H390.419C391.601 34.5605 392.56 35.4889 392.56 36.6342V39.399C392.56 40.5443 391.601 41.4727 390.419 41.4727H244.166C242.984 41.4727 242.026 40.5443 242.026 39.399V36.6342Z" fill="#0442FF"/>
<path d="M242.026 50.4589C242.026 49.3137 242.984 48.3853 244.166 48.3853H390.419C391.601 48.3853 392.56 49.3137 392.56 50.4589V53.2238C392.56 54.369 391.601 55.2974 390.419 55.2974H244.166C242.984 55.2974 242.026 54.369 242.026 53.2238V50.4589Z" fill="#0442FF"/>
<path fill-rule="evenodd" clip-rule="evenodd" d="M299.273 90.5249H132.202C129.034 90.5249 126.465 93.2697 126.465 96.6556V151.833C126.465 155.218 129.034 157.963 132.202 157.963H299.273C302.441 157.963 305.01 155.218 305.01 151.833V96.6556C305.01 93.2697 302.441 90.5249 299.273 90.5249ZM132.202 88.9922C128.242 88.9922 125.031 92.4232 125.031 96.6556V151.833C125.031 156.065 128.242 159.496 132.202 159.496H299.273C303.233 159.496 306.444 156.065 306.444 151.833V96.6556C306.444 92.4232 303.233 88.9922 299.273 88.9922H132.202Z" fill="#0442FF"/>
<path d="M135.324 124.245C135.324 129.971 130.692 134.613 124.979 134.613C119.266 134.613 114.635 129.971 114.635 124.245C114.635 118.519 119.266 113.877 124.979 113.877C130.692 113.877 135.324 118.519 135.324 124.245Z" fill="#0442FF"/>
<path fill-rule="evenodd" clip-rule="evenodd" d="M124.979 133.873C130.284 133.873 134.585 129.562 134.585 124.245C134.585 118.928 130.284 114.618 124.979 114.618C119.674 114.618 115.374 118.928 115.374 124.245C115.374 129.562 119.674 133.873 124.979 133.873ZM124.979 134.613C130.692 134.613 135.324 129.971 135.324 124.245C135.324 118.519 130.692 113.877 124.979 113.877C119.266 113.877 114.635 118.519 114.635 124.245C114.635 129.971 119.266 134.613 124.979 134.613Z" fill="#0442FF"/>
<path d="M140.469 99.3612C140.469 98.216 141.427 97.2876 142.608 97.2876H191.082C192.263 97.2876 193.22 98.216 193.22 99.3612V102.126C193.22 103.271 192.263 104.2 191.082 104.2H142.608C141.427 104.2 140.469 103.271 140.469 102.126V99.3612Z" fill="#0442FF"/>
<path d="M140.469 113.185C140.469 112.04 141.427 111.111 142.61 111.111H288.863C290.045 111.111 291.003 112.04 291.003 113.185V115.95C291.003 117.095 290.045 118.023 288.863 118.023H142.61C141.427 118.023 140.469 117.095 140.469 115.95V113.185Z" fill="#0442FF"/>
<path d="M140.469 125.626C140.469 124.481 141.427 123.553 142.61 123.553H288.863C290.045 123.553 291.003 124.481 291.003 125.626V128.391C291.003 129.536 290.045 130.465 288.863 130.465H142.61C141.427 130.465 140.469 129.536 140.469 128.391V125.626Z" fill="#0442FF"/>
<path d="M140.469 139.451C140.469 138.305 141.427 137.377 142.61 137.377H288.863C290.045 137.377 291.003 138.305 291.003 139.451V142.215C291.003 143.361 290.045 144.289 288.863 144.289H142.61C141.427 144.289 140.469 143.361 140.469 142.215V139.451Z" fill="#0442FF"/>
<path d="M122.317 124.106C122.66 124.526 123.297 124.855 124.158 124.855C125.278 124.855 125.999 124.288 125.999 123.483C125.999 122.783 125.383 122.412 124.907 122.363C125.425 122.272 125.929 121.887 125.929 121.299C125.929 120.522 125.257 120.032 124.165 120.032C123.346 120.032 122.758 120.347 122.38 120.774L122.87 121.39C123.199 121.075 123.612 120.9 124.06 120.9C124.55 120.9 124.928 121.089 124.928 121.46C124.928 121.81 124.585 121.978 124.067 121.978C123.892 121.978 123.57 121.978 123.486 121.971V122.839C123.556 122.832 123.871 122.832 124.067 122.832C124.718 122.832 125.005 123.007 125.005 123.385C125.005 123.742 124.69 123.987 124.123 123.987C123.668 123.987 123.157 123.791 122.835 123.455L122.317 124.106Z" fill="#0442FF"/>
<path d="M225.376 39H229.392V38H227.168C228.6 36.992 229.352 36.2 229.352 35.288C229.352 34.224 228.448 33.584 227.312 33.584C226.568 33.584 225.776 33.856 225.256 34.456L225.904 35.208C226.264 34.832 226.728 34.592 227.328 34.592C227.776 34.592 228.2 34.824 228.2 35.288C228.2 35.944 227.56 36.496 225.376 38.104V39Z" fill="white"/>
<path d="M123.16 126.24C123.552 126.72 124.28 127.096 125.264 127.096C126.544 127.096 127.368 126.448 127.368 125.528C127.368 124.728 126.664 124.304 126.12 124.248C126.712 124.144 127.288 123.704 127.288 123.032C127.288 122.144 126.52 121.584 125.272 121.584C124.336 121.584 123.664 121.944 123.232 122.432L123.792 123.136C124.168 122.776 124.64 122.576 125.152 122.576C125.712 122.576 126.144 122.792 126.144 123.216C126.144 123.616 125.752 123.808 125.16 123.808C124.96 123.808 124.592 123.808 124.496 123.8V124.792C124.576 124.784 124.936 124.784 125.16 124.784C125.904 124.784 126.232 124.984 126.232 125.416C126.232 125.824 125.872 126.104 125.224 126.104C124.704 126.104 124.12 125.88 123.752 125.496L123.16 126.24Z" fill="white"/>
</svg>
