<svg width="430" height="356" viewBox="0 0 430 356" fill="none" xmlns="http://www.w3.org/2000/svg">
<path fill-rule="evenodd" clip-rule="evenodd" d="M166.344 92.8352C173.162 83.2323 177.171 71.4946 177.171 58.8206C177.171 26.3349 150.836 0 118.35 0C85.8642 0 59.5293 26.3349 59.5293 58.8206C59.5293 91.3064 85.8642 117.641 118.35 117.641C126.62 117.641 134.491 115.935 141.631 112.854C139.707 110.222 138.571 106.978 138.571 103.468C138.571 94.6744 145.7 87.5461 154.493 87.5461C159.2 87.5461 163.429 89.5884 166.344 92.8352ZM162.532 97.6522C160.729 95.1643 157.8 93.5461 154.493 93.5461C149.013 93.5461 144.571 97.9881 144.571 103.468C144.571 106.031 145.543 108.366 147.138 110.127C152.953 106.857 158.156 102.627 162.532 97.6522Z" fill="#0442FF"/>
<path fill-rule="evenodd" clip-rule="evenodd" d="M291.078 178.357C289.975 190.083 292.372 202.252 298.709 213.228C314.952 241.362 350.926 251.001 379.06 234.758C407.193 218.515 416.833 182.541 400.59 154.407C384.347 126.274 348.373 116.635 320.239 132.878C313.077 137.013 307.114 142.426 302.471 148.664C305.453 149.981 308.059 152.223 309.814 155.263C314.211 162.878 311.601 172.616 303.986 177.012C299.91 179.366 295.226 179.712 291.078 178.357ZM291.971 172.28C294.776 173.533 298.122 173.47 300.986 171.816C305.732 169.076 307.358 163.008 304.618 158.263C303.336 156.043 301.327 154.506 299.065 153.779C295.664 159.519 293.273 165.783 291.971 172.28Z" fill="#0442FF"/>
<path fill-rule="evenodd" clip-rule="evenodd" d="M106.815 262.923C113.633 272.526 117.641 284.264 117.641 296.938C117.641 329.424 91.3064 355.759 58.8206 355.759C26.3349 355.759 -1.79042e-07 329.424 -3.99901e-07 296.938C-6.2076e-07 264.452 26.3349 238.118 58.8206 238.117C67.0906 238.117 74.9619 239.824 82.1016 242.905C80.1776 245.536 79.0419 248.781 79.0419 252.291C79.0419 261.084 86.1702 268.213 94.9634 268.213C99.6701 268.213 103.9 266.17 106.815 262.923ZM103.003 258.107C101.2 260.594 98.2707 262.213 94.9634 262.213C89.4839 262.213 85.0419 257.77 85.0419 252.291C85.0419 249.728 86.0136 247.392 87.6086 245.632C93.4238 248.902 98.6268 253.131 103.003 258.107Z" fill="#0442FF"/>
<circle cx="154.493" cy="103.467" r="9.92155" fill="#0442FF"/>
<circle cx="296.026" cy="163.224" r="9.92155" transform="rotate(150 296.026 163.224)" fill="#0442FF"/>
<circle r="9.92155" transform="matrix(1 -6.79865e-09 -6.79865e-09 -1 94.9635 252.291)" fill="#0442FF"/>
<path d="M296.229 163.705L154.493 104.885L95.6724 253.708L296.229 163.705Z" stroke="#0442FF" stroke-width="4"/>
<circle cx="118.35" cy="43.2295" r="14.8823" fill="white"/>
<circle cx="349.38" cy="173.627" r="14.8823" fill="white"/>
<circle cx="58.8208" cy="287.017" r="14.8823" fill="white"/>
<path d="M119.059 55.2773C105.751 55.2773 94.9634 66.0651 94.9634 79.3725H143.154C143.154 66.0651 132.366 55.2773 119.059 55.2773Z" fill="white"/>
<path d="M350.089 185.675C336.782 185.675 325.994 196.463 325.994 209.77H374.185C374.185 196.463 363.397 185.675 350.089 185.675Z" fill="white"/>
<path d="M59.5293 299.064C46.2219 299.064 35.4341 309.852 35.4341 323.159H83.6245C83.6245 309.852 72.8367 299.064 59.5293 299.064Z" fill="white"/>
<path fill-rule="evenodd" clip-rule="evenodd" d="M89.0001 39C82.3728 39 77.0002 33.8512 77.0002 27.5C77.0002 21.1487 82.3728 16 89.0001 16C95.6275 16 101 21.1487 101 27.5C101 30.2333 100.005 32.7439 98.3431 34.7173L99.3447 39L95.3872 37.2374C93.5376 38.354 91.3476 39 89.0001 39Z" fill="white"/>
<path fill-rule="evenodd" clip-rule="evenodd" d="M375.154 163C381.314 163 386.308 158.523 386.308 153C386.308 147.477 381.314 143 375.154 143C368.994 143 364 147.477 364 153C364 155.377 364.925 157.56 366.47 159.276L365.538 163L369.217 161.467C370.936 162.438 372.972 163 375.154 163Z" fill="white"/>
<path fill-rule="evenodd" clip-rule="evenodd" d="M39.0179 274.154C39.0179 268.546 33.6413 264 27.0089 264C20.3766 264 15 268.546 15 274.154C15 279.762 20.3766 284.308 27.0089 284.308C29.8632 284.308 32.485 283.466 34.5456 282.059L39.018 282.907L37.1774 279.558C38.3433 277.993 39.0179 276.14 39.0179 274.154Z" fill="white"/>
</svg>
