<svg width="271" height="106" viewBox="0 0 271 106" fill="none" xmlns="http://www.w3.org/2000/svg">
<path fill-rule="evenodd" clip-rule="evenodd" d="M121.613 1.01614H10.8486C8.74819 1.01614 7.0455 2.8359 7.0455 5.0807V41.6617C7.0455 43.9065 8.74819 45.7263 10.8486 45.7263H121.613C123.714 45.7263 125.416 43.9065 125.416 41.6617V5.0807C125.416 2.8359 123.714 1.01614 121.613 1.01614ZM10.8486 0C8.2231 0 6.09473 2.2747 6.09473 5.0807V41.6617C6.09473 44.4677 8.2231 46.7424 10.8486 46.7424H121.613C124.239 46.7424 126.367 44.4677 126.367 41.6617V5.0807C126.367 2.27471 124.239 0 121.613 0H10.8486Z" fill="#0442FF"/>
<path d="M12.9185 23.3719C12.9185 27.1683 10.0266 30.2458 6.45923 30.2458C2.8919 30.2458 0 27.1683 0 23.3719C0 19.5756 2.8919 16.498 6.45923 16.498C10.0266 16.498 12.9185 19.5756 12.9185 23.3719Z" fill="#0442FF"/>
<path fill-rule="evenodd" clip-rule="evenodd" d="M6.45923 29.7548C9.77176 29.7548 12.4571 26.8971 12.4571 23.3719C12.4571 19.8468 9.77176 16.989 6.45923 16.989C3.14671 16.989 0.461374 19.8468 0.461374 23.3719C0.461374 26.8971 3.14671 29.7548 6.45923 29.7548ZM6.45923 30.2458C10.0266 30.2458 12.9185 27.1683 12.9185 23.3719C12.9185 19.5756 10.0266 16.498 6.45923 16.498C2.8919 16.498 0 19.5756 0 23.3719C0 27.1683 2.8919 30.2458 6.45923 30.2458Z" fill="#0442FF"/>
<path d="M6.23665 25.6622H7.26645V21.0796H6.36719L4.84424 22.5293L5.43166 23.1132L6.23665 22.3369V25.6622Z" fill="white"/>
<path d="M16.3301 6.87429C16.3301 6.11502 16.9649 5.49951 17.7479 5.49951H49.8851C50.6681 5.49951 51.3029 6.11502 51.3029 6.87429V8.70733C51.3029 9.46659 50.6681 10.0821 49.8851 10.0821H17.7479C16.9649 10.0821 16.3301 9.46659 16.3301 8.70733V6.87429Z" fill="#0442FF"/>
<path d="M16.3301 16.0393C16.3301 15.2801 16.9654 14.6646 17.749 14.6646H114.712C115.495 14.6646 116.131 15.2801 116.131 16.0393V17.8724C116.131 18.6316 115.495 19.2471 114.712 19.2471H17.749C16.9654 19.2471 16.3301 18.6316 16.3301 17.8724V16.0393Z" fill="#0442FF"/>
<path d="M16.3301 24.2879C16.3301 23.5286 16.9654 22.9131 17.749 22.9131H114.712C115.495 22.9131 116.131 23.5286 116.131 24.2879V26.1209C116.131 26.8802 115.495 27.4957 114.712 27.4957H17.749C16.9654 27.4957 16.3301 26.8802 16.3301 26.1209V24.2879Z" fill="#0442FF"/>
<path d="M16.3301 33.4529C16.3301 32.6936 16.9654 32.0781 17.749 32.0781H114.712C115.495 32.0781 116.131 32.6936 116.131 33.4529V35.2859C116.131 36.0452 115.495 36.6607 114.712 36.6607H17.749C16.9654 36.6607 16.3301 36.0452 16.3301 35.2859V33.4529Z" fill="#0442FF"/>
<path fill-rule="evenodd" clip-rule="evenodd" d="M265.741 1.01614H154.976C152.876 1.01614 151.173 2.8359 151.173 5.0807V41.6617C151.173 43.9065 152.876 45.7263 154.976 45.7263H265.741C267.841 45.7263 269.544 43.9065 269.544 41.6617V5.0807C269.544 2.8359 267.841 1.01614 265.741 1.01614ZM154.976 0C152.351 0 150.222 2.2747 150.222 5.0807V41.6617C150.222 44.4677 152.351 46.7424 154.976 46.7424H265.741C268.366 46.7424 270.495 44.4677 270.495 41.6617V5.0807C270.495 2.27471 268.366 0 265.741 0H154.976Z" fill="#0442FF"/>
<path d="M157.749 23.8739C157.749 27.6702 154.671 30.7478 150.875 30.7478C147.078 30.7478 144 27.6702 144 23.8739C144 20.0775 147.078 17 150.875 17C154.671 17 157.749 20.0775 157.749 23.8739Z" fill="#0442FF"/>
<path fill-rule="evenodd" clip-rule="evenodd" d="M150.875 30.2568C154.4 30.2568 157.258 27.3991 157.258 23.8739C157.258 20.3487 154.4 17.491 150.875 17.491C147.349 17.491 144.491 20.3487 144.491 23.8739C144.491 27.3991 147.349 30.2568 150.875 30.2568ZM150.875 30.7478C154.671 30.7478 157.749 27.6702 157.749 23.8739C157.749 20.0775 154.671 17 150.875 17C147.078 17 144 20.0775 144 23.8739C144 27.6702 147.078 30.7478 150.875 30.7478Z" fill="#0442FF"/>
<path d="M160.458 6.87429C160.458 6.11502 161.092 5.49951 161.875 5.49951H194.013C194.796 5.49951 195.43 6.11502 195.43 6.87429V8.70733C195.43 9.46659 194.796 10.0821 194.013 10.0821H161.875C161.092 10.0821 160.458 9.46659 160.458 8.70733V6.87429Z" fill="#0442FF"/>
<path d="M160.458 16.0393C160.458 15.2801 161.093 14.6646 161.876 14.6646H258.839C259.623 14.6646 260.258 15.2801 260.258 16.0393V17.8724C260.258 18.6316 259.623 19.2471 258.839 19.2471H161.876C161.093 19.2471 160.458 18.6316 160.458 17.8724V16.0393Z" fill="#0442FF"/>
<path d="M160.458 24.2879C160.458 23.5286 161.093 22.9131 161.876 22.9131H258.839C259.623 22.9131 260.258 23.5286 260.258 24.2879V26.1209C260.258 26.8802 259.623 27.4957 258.839 27.4957H161.876C161.093 27.4957 160.458 26.8802 160.458 26.1209V24.2879Z" fill="#0442FF"/>
<path d="M160.458 33.4529C160.458 32.6936 161.093 32.0781 161.876 32.0781H258.839C259.623 32.0781 260.258 32.6936 260.258 33.4529V35.2859C260.258 36.0452 259.623 36.6607 258.839 36.6607H161.876C161.093 36.6607 160.458 36.0452 160.458 35.2859V33.4529Z" fill="#0442FF"/>
<path fill-rule="evenodd" clip-rule="evenodd" d="M198.411 60.0161H87.6464C85.546 60.0161 83.8433 61.8359 83.8433 64.0807V100.662C83.8433 102.907 85.546 104.726 87.6464 104.726H198.411C200.511 104.726 202.214 102.907 202.214 100.662V64.0807C202.214 61.8359 200.511 60.0161 198.411 60.0161ZM87.6464 59C85.0209 59 82.8926 61.2747 82.8926 64.0807V100.662C82.8926 103.468 85.0209 105.742 87.6464 105.742H198.411C201.037 105.742 203.165 103.468 203.165 100.662V64.0807C203.165 61.2747 201.037 59 198.411 59H87.6464Z" fill="#0442FF"/>
<path d="M89.7163 82.3719C89.7163 86.1683 86.6458 89.2458 82.8582 89.2458C79.0705 89.2458 76 86.1683 76 82.3719C76 78.5756 79.0705 75.498 82.8582 75.498C86.6458 75.498 89.7163 78.5756 89.7163 82.3719Z" fill="#0442FF"/>
<path fill-rule="evenodd" clip-rule="evenodd" d="M82.8582 88.7548C86.3753 88.7548 89.2265 85.8971 89.2265 82.3719C89.2265 78.8468 86.3753 75.989 82.8582 75.989C79.341 75.989 76.4899 78.8468 76.4899 82.3719C76.4899 85.8971 79.341 88.7548 82.8582 88.7548ZM82.8582 89.2458C86.6458 89.2458 89.7163 86.1683 89.7163 82.3719C89.7163 78.5756 86.6458 75.498 82.8582 75.498C79.0705 75.498 76 78.5756 76 82.3719C76 86.1683 79.0705 89.2458 82.8582 89.2458Z" fill="#0442FF"/>
<path d="M93.1279 65.8743C93.1279 65.115 93.7627 64.4995 94.5457 64.4995H126.683C127.466 64.4995 128.101 65.115 128.101 65.8743V67.7073C128.101 68.4666 127.466 69.0821 126.683 69.0821H94.5457C93.7627 69.0821 93.1279 68.4666 93.1279 67.7073V65.8743Z" fill="#0442FF"/>
<path d="M93.1279 75.0393C93.1279 74.2801 93.7632 73.6646 94.5469 73.6646H191.509C192.293 73.6646 192.928 74.2801 192.928 75.0393V76.8724C192.928 77.6316 192.293 78.2471 191.509 78.2471H94.5469C93.7632 78.2471 93.1279 77.6316 93.1279 76.8724V75.0393Z" fill="#0442FF"/>
<path d="M93.1279 83.2879C93.1279 82.5286 93.7632 81.9131 94.5469 81.9131H191.509C192.293 81.9131 192.928 82.5286 192.928 83.2879V85.1209C192.928 85.8802 192.293 86.4957 191.509 86.4957H94.5469C93.7632 86.4957 93.1279 85.8802 93.1279 85.1209V83.2879Z" fill="#0442FF"/>
<path d="M93.1279 92.4529C93.1279 91.6936 93.7632 91.0781 94.5469 91.0781H191.509C192.293 91.0781 192.928 91.6936 192.928 92.4529V94.2859C192.928 95.0452 192.293 95.6607 191.509 95.6607H94.5469C93.7632 95.6607 93.1279 95.0452 93.1279 94.2859V92.4529Z" fill="#0442FF"/>
<path d="M81.14 84.0777C81.483 84.4977 82.12 84.8267 82.981 84.8267C84.101 84.8267 84.822 84.2597 84.822 83.4547C84.822 82.7547 84.206 82.3837 83.73 82.3347C84.248 82.2437 84.752 81.8587 84.752 81.2707C84.752 80.4937 84.08 80.0037 82.988 80.0037C82.169 80.0037 81.581 80.3187 81.203 80.7457L81.693 81.3617C82.022 81.0467 82.435 80.8717 82.883 80.8717C83.373 80.8717 83.751 81.0607 83.751 81.4317C83.751 81.7817 83.408 81.9497 82.89 81.9497C82.715 81.9497 82.393 81.9497 82.309 81.9427V82.8107C82.379 82.8037 82.694 82.8037 82.89 82.8037C83.541 82.8037 83.828 82.9787 83.828 83.3567C83.828 83.7137 83.513 83.9587 82.946 83.9587C82.491 83.9587 81.98 83.7627 81.658 83.4267L81.14 84.0777Z" fill="#0442FF"/>
<path d="M149.282 26H152.294V25.25H150.626C151.7 24.494 152.264 23.9 152.264 23.216C152.264 22.418 151.586 21.938 150.734 21.938C150.176 21.938 149.582 22.142 149.192 22.592L149.678 23.156C149.948 22.874 150.296 22.694 150.746 22.694C151.082 22.694 151.4 22.868 151.4 23.216C151.4 23.708 150.92 24.122 149.282 25.328V26Z" fill="white"/>
<path d="M81.14 84.335C81.483 84.755 82.12 85.084 82.981 85.084C84.101 85.084 84.822 84.517 84.822 83.712C84.822 83.012 84.206 82.641 83.73 82.592C84.248 82.501 84.752 82.116 84.752 81.528C84.752 80.751 84.08 80.261 82.988 80.261C82.169 80.261 81.581 80.576 81.203 81.003L81.693 81.619C82.022 81.304 82.435 81.129 82.883 81.129C83.373 81.129 83.751 81.318 83.751 81.689C83.751 82.039 83.408 82.207 82.89 82.207C82.715 82.207 82.393 82.207 82.309 82.2V83.068C82.379 83.061 82.694 83.061 82.89 83.061C83.541 83.061 83.828 83.236 83.828 83.614C83.828 83.971 83.513 84.216 82.946 84.216C82.491 84.216 81.98 84.02 81.658 83.684L81.14 84.335Z" fill="white"/>
</svg>
